<svg width="1200" height="17490" viewBox="0 0 1200 17490" fill="none" xmlns="http://www.w3.org/2000/svg">
<g clip-path="url(#clip0_301_31)">
<mask id="mask0_301_31" style="mask-type:alpha" maskUnits="userSpaceOnUse" x="0" y="14408" width="1212" height="14419">
<path d="M0 28826.3H1211.05V14408.1H0V28826.3Z" fill="#D9D9D9"/>
</mask>
<g mask="url(#mask0_301_31)">
<g opacity="0.3" filter="url(#filter0_f_301_31)">
<path d="M74.8215 15786.2C-124.368 16267.9 -91.6196 17101 -70.2522 17303.6C47.9993 17877.1 794.569 17684.7 856.113 17471.9C917.657 17259.2 588.903 16450.2 785.89 16173.1C915.492 15990.8 1236.57 16123.8 1286.29 16010.9C1355.4 15854 1567.38 15296.2 1581.06 14971.6C1588.98 14783.5 1570.85 13914.3 1061.74 14045C438.976 14204.9 449.068 15515.2 640.817 15889.7C742.202 16087.8 149.111 15606.6 74.8215 15786.2Z" fill="url(#paint0_linear_301_31)"/>
</g>
</g>
</g>
<g clip-path="url(#clip1_301_31)">
<mask id="mask1_301_31" style="mask-type:alpha" maskUnits="userSpaceOnUse" x="0" y="0" width="1212" height="14409">
<path d="M0 0H1211.05V14408.1H0V0Z" fill="#D9D9D9"/>
</mask>
<g mask="url(#mask1_301_31)">
<g opacity="0.25" filter="url(#filter1_f_301_31)">
<path d="M-118.581 826.283V-217.131H1356.54V225.128C1356.54 311.637 1320.43 244.436 1226.64 347.831C991.228 607.36 1229.16 1154.67 1016.45 1154.67C685.98 1154.67 342.21 735.359 123.139 735.359C32.3366 735.359 -69.3959 954.664 -118.581 826.283Z" fill="url(#paint1_linear_301_31)"/>
</g>
<g opacity="0.3" filter="url(#filter2_f_301_31)">
<path d="M26.2599 1956.15C0.942232 1720.35 -11.4769 1604.68 241.647 1444.17C361.071 1444.17 412.791 1495.51 438.863 1657.1C464.934 1818.68 826.146 1625.12 851.795 1960.91C877.446 2296.71 658.365 2328.69 570.9 2509.63C483.436 2690.58 370.742 2703.2 141.568 2587.06C-87.6053 2470.92 52.4222 2199.93 26.7716 1960.91L26.2599 1956.15Z" fill="#547FF2"/>
</g>
<g opacity="0.25" filter="url(#filter3_f_301_31)">
<path d="M781.22 2884.98C764.918 2646.16 737.749 2426.13 899.693 2264.68C975.588 2264.68 1246.45 2161.01 1263.01 2322.46C1279.58 2483.91 1402.61 2405.24 1418.91 2740.78C1435.21 3076.31 1318.6 2913.38 1263.01 3094.19C1207.43 3274.98 1113.19 3482.48 967.551 3366.43C821.907 3250.39 797.52 3123.81 781.22 2884.98Z" fill="#8E6BC7"/>
</g>
<g opacity="0.3" filter="url(#filter4_f_301_31)">
<path d="M921.344 3826.31C1203.5 3557.84 1335.97 3921.09 1428.89 4012.2C1677.74 4382.18 1525.6 5406.03 1407.45 5473.3C1289.29 5540.58 980.192 5069.34 797.693 5383.67C677.624 5590.49 573.566 5898.09 506.706 5966.9C413.754 6062.55 459.609 5971.11 298.979 5918.09C205.919 5887.37 99.0638 5352.54 151.382 5158.97C270.804 4717.13 499.754 5086.78 602.183 4890.92C704.614 4695.07 816.111 3926.44 921.344 3826.31Z" fill="url(#paint2_linear_301_31)"/>
</g>
<g opacity="0.3" filter="url(#filter5_f_301_31)">
<path d="M440.598 3922.62C361.097 3922.62 360.459 4010.93 261.877 3721.31C205.908 3721.31 181.739 3834.3 120.681 3796.63C59.6228 3758.98 114.32 3445.97 181.739 3282.33C249.157 3118.68 348.376 3445.97 440.598 3282.33C532.821 3118.68 563.351 3521.3 569.71 3608.32C576.07 3695.34 520.102 3922.62 440.598 3922.62Z" fill="#366DFF"/>
</g>
<g opacity="0.3" filter="url(#filter6_f_301_31)">
<path d="M74.8225 13040C-124.367 12558.3 -91.6186 11725.3 -70.2512 11522.6C48.0004 10949.1 794.57 11141.5 856.114 11354.3C917.659 11567.1 588.904 12376 785.891 12653.1C915.493 12835.4 1236.58 12702.5 1286.29 12815.3C1355.4 12972.3 1567.38 13530 1581.06 13854.7C1588.98 14042.8 1570.86 14912 1061.74 14781.3C438.977 14621.4 449.069 13311 640.818 12936.5C742.203 12738.5 149.112 13219.7 74.8225 13040Z" fill="url(#paint3_linear_301_31)"/>
</g>
<g opacity="0.25" filter="url(#filter7_f_301_31)">
<path d="M608.301 8674.42C736.024 9072.26 871.817 8709.22 987.671 8962.45C1002.48 9098.37 1138.47 9536.54 1057.44 9602.97C976.415 9669.41 1049.5 9911.75 877.571 10017.4C705.647 10122.9 698.336 9700.19 593.138 9641.82C487.939 9583.46 294.207 9664.19 248.233 8992.44C227.232 8685.62 523.189 8409.29 608.301 8674.42Z" fill="url(#paint4_linear_301_31)"/>
</g>
<g opacity="0.25" filter="url(#filter8_f_301_31)">
<path d="M827.549 8497.57C712.486 8482.93 324.047 8544.55 197.638 8014.5C116.633 8004.18 47.5178 8037.22 47.5181 7783.9C47.5189 6974.29 113.159 7329.36 219.924 7052.56C326.69 6775.75 280.896 6226.11 652.2 6761.36C812.148 6991.94 1387.97 6945.55 1392.28 7100.53C1396.6 7255.5 942.613 8512.22 827.549 8497.57Z" fill="url(#paint5_linear_301_31)" fill-opacity="0.87"/>
</g>
</g>
</g>
<defs>
<filter id="filter0_f_301_31" x="-486.44" y="13631.6" width="2468.67" height="4451.07" filterUnits="userSpaceOnUse" color-interpolation-filters="sRGB">
<feFlood flood-opacity="0" result="BackgroundImageFix"/>
<feBlend mode="normal" in="SourceGraphic" in2="BackgroundImageFix" result="shape"/>
<feGaussianBlur stdDeviation="200" result="effect1_foregroundBlur_301_31"/>
</filter>
<filter id="filter1_f_301_31" x="-418.581" y="-517.131" width="2075.12" height="1971.8" filterUnits="userSpaceOnUse" color-interpolation-filters="sRGB">
<feFlood flood-opacity="0" result="BackgroundImageFix"/>
<feBlend mode="normal" in="SourceGraphic" in2="BackgroundImageFix" result="shape"/>
<feGaussianBlur stdDeviation="150" result="effect1_foregroundBlur_301_31"/>
</filter>
<filter id="filter2_f_301_31" x="-292.43" y="1144.17" width="1446.3" height="1818.15" filterUnits="userSpaceOnUse" color-interpolation-filters="sRGB">
<feFlood flood-opacity="0" result="BackgroundImageFix"/>
<feBlend mode="normal" in="SourceGraphic" in2="BackgroundImageFix" result="shape"/>
<feGaussianBlur stdDeviation="150" result="effect1_foregroundBlur_301_31"/>
</filter>
<filter id="filter3_f_301_31" x="418.679" y="1881.91" width="1351.78" height="1868.12" filterUnits="userSpaceOnUse" color-interpolation-filters="sRGB">
<feFlood flood-opacity="0" result="BackgroundImageFix"/>
<feBlend mode="normal" in="SourceGraphic" in2="BackgroundImageFix" result="shape"/>
<feGaussianBlur stdDeviation="175" result="effect1_foregroundBlur_301_31"/>
</filter>
<filter id="filter4_f_301_31" x="-262.409" y="3329.12" width="2225.3" height="3079.52" filterUnits="userSpaceOnUse" color-interpolation-filters="sRGB">
<feFlood flood-opacity="0" result="BackgroundImageFix"/>
<feBlend mode="normal" in="SourceGraphic" in2="BackgroundImageFix" result="shape"/>
<feGaussianBlur stdDeviation="200" result="effect1_foregroundBlur_301_31"/>
</filter>
<filter id="filter5_f_301_31" x="-205.806" y="2935.09" width="1076.01" height="1300.2" filterUnits="userSpaceOnUse" color-interpolation-filters="sRGB">
<feFlood flood-opacity="0" result="BackgroundImageFix"/>
<feBlend mode="normal" in="SourceGraphic" in2="BackgroundImageFix" result="shape"/>
<feGaussianBlur stdDeviation="150" result="effect1_foregroundBlur_301_31"/>
</filter>
<filter id="filter6_f_301_31" x="-486.439" y="10743.5" width="2468.67" height="4451.08" filterUnits="userSpaceOnUse" color-interpolation-filters="sRGB">
<feFlood flood-opacity="0" result="BackgroundImageFix"/>
<feBlend mode="normal" in="SourceGraphic" in2="BackgroundImageFix" result="shape"/>
<feGaussianBlur stdDeviation="200" result="effect1_foregroundBlur_301_31"/>
</filter>
<filter id="filter7_f_301_31" x="-152.831" y="8167.84" width="1635.86" height="2266.37" filterUnits="userSpaceOnUse" color-interpolation-filters="sRGB">
<feFlood flood-opacity="0" result="BackgroundImageFix"/>
<feBlend mode="normal" in="SourceGraphic" in2="BackgroundImageFix" result="shape"/>
<feGaussianBlur stdDeviation="200" result="effect1_foregroundBlur_301_31"/>
</filter>
<filter id="filter8_f_301_31" x="-252.482" y="6235.85" width="1944.8" height="2561.85" filterUnits="userSpaceOnUse" color-interpolation-filters="sRGB">
<feFlood flood-opacity="0" result="BackgroundImageFix"/>
<feBlend mode="normal" in="SourceGraphic" in2="BackgroundImageFix" result="shape"/>
<feGaussianBlur stdDeviation="150" result="effect1_foregroundBlur_301_31"/>
</filter>
<linearGradient id="paint0_linear_301_31" x1="-48.0144" y1="17323.3" x2="1603.7" y2="15744.6" gradientUnits="userSpaceOnUse">
<stop offset="0.110053" stop-color="#62D6C2" stop-opacity="0.87"/>
<stop offset="0.623819" stop-color="#547FF2"/>
<stop offset="0.996364" stop-color="#6C42E6" stop-opacity="0.77"/>
</linearGradient>
<linearGradient id="paint1_linear_301_31" x1="-180.326" y1="-673.787" x2="1839.74" y2="212.049" gradientUnits="userSpaceOnUse">
<stop offset="0.142413" stop-color="#6154F2"/>
<stop offset="0.796875" stop-color="#62D6C2"/>
<stop offset="1" stop-color="#62D6C2" stop-opacity="0.11"/>
</linearGradient>
<linearGradient id="paint2_linear_301_31" x1="1449.07" y1="3905.58" x2="-35.1629" y2="4082.46" gradientUnits="userSpaceOnUse">
<stop offset="0.110053" stop-color="#62D6C2" stop-opacity="0.87"/>
<stop offset="0.623819" stop-color="#547FF2"/>
<stop offset="0.996364" stop-color="#6C42E6" stop-opacity="0.77"/>
</linearGradient>
<linearGradient id="paint3_linear_301_31" x1="-48.0135" y1="11503" x2="1603.7" y2="13081.7" gradientUnits="userSpaceOnUse">
<stop offset="0.110053" stop-color="#62D6C2" stop-opacity="0.87"/>
<stop offset="0.623819" stop-color="#547FF2"/>
<stop offset="0.996364" stop-color="#6C42E6" stop-opacity="0.77"/>
</linearGradient>
<linearGradient id="paint4_linear_301_31" x1="1121.56" y1="9019.21" x2="197.615" y2="9330.97" gradientUnits="userSpaceOnUse">
<stop offset="0.407457" stop-color="#6149BF"/>
<stop offset="0.88954" stop-color="#70BEF7"/>
</linearGradient>
<linearGradient id="paint5_linear_301_31" x1="227.072" y1="6778.2" x2="1308.31" y2="7446.09" gradientUnits="userSpaceOnUse">
<stop stop-color="#62D6C2"/>
<stop offset="1" stop-color="#547FF2"/>
</linearGradient>
<clipPath id="clip0_301_31">
<rect width="1200" height="3081.92" fill="white" transform="translate(0 14408.1)"/>
</clipPath>
<clipPath id="clip1_301_31">
<rect width="1200" height="14408.1" fill="white"/>
</clipPath>
</defs>
</svg>
