<svg width="1440" height="8362" viewBox="0 0 1440 8362" fill="none" xmlns="http://www.w3.org/2000/svg">
<mask id="mask0_7_3" style="mask-type:alpha" maskUnits="userSpaceOnUse" x="0" y="0" width="1440" height="8566">
<path d="M0 0H1440V8566H0V0Z" fill="#D9D9D9"/>
</mask>
<g mask="url(#mask0_7_3)">
<g opacity="0.25" filter="url(#filter0_f_7_3)">
<path d="M-141 490.904V-129H1613V133.751C1613 185.147 1570.06 145.222 1458.54 206.65C1178.62 360.839 1461.54 686 1208.62 686C815.666 686 406.906 436.885 146.418 436.885C38.4489 436.885 -82.5167 567.176 -141 490.904Z" fill="url(#paint0_linear_7_3)"/>
</g>
<g opacity="0.3" filter="url(#filter1_f_7_3)">
<path d="M31.832 1165C1.33203 1023 -15.6683 954 287.332 858C429.332 858 490.831 888.5 521.831 984.5C552.831 1080.5 982.331 965.5 1012.83 1165C1043.33 1364.5 782.831 1383.5 678.831 1491C574.831 1598.5 440.832 1606 168.332 1537C-104.168 1468 62.332 1307 31.832 1165Z" fill="#547FF2"/>
</g>
<g opacity="0.25" filter="url(#filter2_f_7_3)">
<path d="M928.911 1714C909.528 1572.11 877.223 1441.39 1069.78 1345.47C1160.03 1345.47 1482.09 1283.88 1501.79 1379.8C1521.49 1475.72 1667.78 1428.98 1687.16 1628.33C1706.54 1827.67 1567.89 1730.87 1501.79 1838.29C1435.7 1945.7 1323.65 2068.98 1150.47 2000.03C977.292 1931.09 948.295 1855.89 928.911 1714Z" fill="#8E6BC7"/>
</g>
<g opacity="0.3" filter="url(#filter3_f_7_3)">
<path d="M1095.53 2273.25C1431.03 2113.75 1588.54 2329.56 1699.03 2383.69C1994.92 2603.5 1814.02 3211.78 1673.53 3251.75C1533.03 3291.72 1165.5 3011.75 948.5 3198.5C805.731 3321.37 682 3504.12 602.5 3545C491.975 3601.83 546.5 3547.5 355.5 3516C244.848 3497.75 117.791 3180 180 3065C322 2802.5 594.233 3022.11 716.028 2905.75C837.823 2789.39 970.4 2332.74 1095.53 2273.25Z" fill="url(#paint1_linear_7_3)"/>
</g>
<g opacity="0.3" filter="url(#filter4_f_7_3)">
<path d="M523.894 2330.47C429.361 2330.47 428.605 2382.94 311.384 2210.87C244.833 2210.87 216.095 2278 143.494 2255.62C70.8932 2233.25 135.932 2047.29 216.095 1950.07C296.259 1852.84 414.236 2047.29 523.894 1950.07C633.552 1852.84 669.852 2092.04 677.415 2143.74C684.978 2195.44 618.427 2330.47 523.894 2330.47Z" fill="#366DFF"/>
</g>
<g opacity="0.3" filter="url(#filter5_f_7_3)">
<path d="M88.9674 7747.23C-147.88 7461.04 -108.94 6966.11 -83.5332 6845.73C57.0745 6504.99 944.787 6619.31 1017.97 6745.73C1091.15 6872.14 700.238 7352.73 934.467 7517.36C1088.57 7625.66 1470.36 7546.67 1529.47 7613.73C1611.65 7706.96 1863.7 8038.33 1879.97 8231.23C1889.39 8342.98 1867.83 8859.39 1262.47 8781.73C521.966 8686.73 533.967 7908.22 761.968 7685.73C882.52 7568.09 177.302 7853.96 88.9674 7747.23Z" fill="url(#paint2_linear_7_3)"/>
</g>
<g opacity="0.25" filter="url(#filter6_f_7_3)">
<path d="M723.304 5153.57C875.171 5389.93 1036.64 5174.24 1174.39 5324.69C1192 5405.44 1353.71 5665.76 1257.36 5705.23C1161.01 5744.7 1247.91 5888.68 1043.48 5951.42C839.052 6014.15 830.359 5762.99 705.273 5728.31C580.186 5693.64 349.827 5741.6 295.161 5342.51C270.191 5160.22 622.1 4996.05 723.304 5153.57Z" fill="url(#paint3_linear_7_3)"/>
</g>
<g opacity="0.25" filter="url(#filter7_f_7_3)">
<path d="M984 5048.5C847.183 5039.8 385.309 5076.41 235 4761.5C138.682 4755.37 56.4997 4775 56.5 4624.5C56.5009 4143.5 134.55 4354.45 261.501 4190C388.451 4025.55 333.999 3699 775.5 4017C965.687 4153.99 1650.37 4126.43 1655.5 4218.5C1660.63 4310.57 1120.82 5057.2 984 5048.5Z" fill="url(#paint4_linear_7_3)" fill-opacity="0.87"/>
</g>
</g>
<defs>
<filter id="filter0_f_7_3" x="-441" y="-429" width="2354" height="1415" filterUnits="userSpaceOnUse" color-interpolation-filters="sRGB">
<feFlood flood-opacity="0" result="BackgroundImageFix"/>
<feBlend mode="normal" in="SourceGraphic" in2="BackgroundImageFix" result="shape"/>
<feGaussianBlur stdDeviation="150" result="effect1_foregroundBlur_7_3"/>
</filter>
<filter id="filter1_f_7_3" x="-291" y="558" width="1606.3" height="1323.72" filterUnits="userSpaceOnUse" color-interpolation-filters="sRGB">
<feFlood flood-opacity="0" result="BackgroundImageFix"/>
<feBlend mode="normal" in="SourceGraphic" in2="BackgroundImageFix" result="shape"/>
<feGaussianBlur stdDeviation="150" result="effect1_foregroundBlur_7_3"/>
</filter>
<filter id="filter2_f_7_3" x="564" y="976" width="1475" height="1394" filterUnits="userSpaceOnUse" color-interpolation-filters="sRGB">
<feFlood flood-opacity="0" result="BackgroundImageFix"/>
<feBlend mode="normal" in="SourceGraphic" in2="BackgroundImageFix" result="shape"/>
<feGaussianBlur stdDeviation="175" result="effect1_foregroundBlur_7_3"/>
</filter>
<filter id="filter3_f_7_3" x="-236.398" y="1815.51" width="2494.76" height="2154.29" filterUnits="userSpaceOnUse" color-interpolation-filters="sRGB">
<feFlood flood-opacity="0" result="BackgroundImageFix"/>
<feBlend mode="normal" in="SourceGraphic" in2="BackgroundImageFix" result="shape"/>
<feGaussianBlur stdDeviation="200" result="effect1_foregroundBlur_7_3"/>
</filter>
<filter id="filter4_f_7_3" x="-188" y="1622" width="1166" height="1016" filterUnits="userSpaceOnUse" color-interpolation-filters="sRGB">
<feFlood flood-opacity="0" result="BackgroundImageFix"/>
<feBlend mode="normal" in="SourceGraphic" in2="BackgroundImageFix" result="shape"/>
<feGaussianBlur stdDeviation="150" result="effect1_foregroundBlur_7_3"/>
</filter>
<filter id="filter5_f_7_3" x="-502.782" y="6220.5" width="2784.14" height="2969.14" filterUnits="userSpaceOnUse" color-interpolation-filters="sRGB">
<feFlood flood-opacity="0" result="BackgroundImageFix"/>
<feBlend mode="normal" in="SourceGraphic" in2="BackgroundImageFix" result="shape"/>
<feGaussianBlur stdDeviation="200" result="effect1_foregroundBlur_7_3"/>
</filter>
<filter id="filter6_f_7_3" x="-106.104" y="4690.25" width="1793.89" height="1671.18" filterUnits="userSpaceOnUse" color-interpolation-filters="sRGB">
<feFlood flood-opacity="0" result="BackgroundImageFix"/>
<feBlend mode="normal" in="SourceGraphic" in2="BackgroundImageFix" result="shape"/>
<feGaussianBlur stdDeviation="200" result="effect1_foregroundBlur_7_3"/>
</filter>
<filter id="filter7_f_7_3" x="-243.5" y="3583.02" width="2199.04" height="1765.56" filterUnits="userSpaceOnUse" color-interpolation-filters="sRGB">
<feFlood flood-opacity="0" result="BackgroundImageFix"/>
<feBlend mode="normal" in="SourceGraphic" in2="BackgroundImageFix" result="shape"/>
<feGaussianBlur stdDeviation="150" result="effect1_foregroundBlur_7_3"/>
</filter>
<linearGradient id="paint0_linear_7_3" x1="-214.419" y1="-400.304" x2="1403.33" y2="1019.52" gradientUnits="userSpaceOnUse">
<stop offset="0.142413" stop-color="#6154F2"/>
<stop offset="0.796875" stop-color="#62D6C2"/>
<stop offset="1" stop-color="#62D6C2" stop-opacity="0.11"/>
</linearGradient>
<linearGradient id="paint1_linear_7_3" x1="1723.03" y1="2320.35" x2="29.4612" y2="2724.27" gradientUnits="userSpaceOnUse">
<stop offset="0.110053" stop-color="#62D6C2" stop-opacity="0.87"/>
<stop offset="0.623819" stop-color="#547FF2"/>
<stop offset="0.996364" stop-color="#6C42E6" stop-opacity="0.77"/>
</linearGradient>
<linearGradient id="paint2_linear_7_3" x1="-57.0913" y1="6834.03" x2="749.496" y2="8376.99" gradientUnits="userSpaceOnUse">
<stop offset="0.110053" stop-color="#62D6C2" stop-opacity="0.87"/>
<stop offset="0.623819" stop-color="#547FF2"/>
<stop offset="0.996364" stop-color="#6C42E6" stop-opacity="0.77"/>
</linearGradient>
<linearGradient id="paint3_linear_7_3" x1="1333.59" y1="5358.41" x2="493.169" y2="5925.96" gradientUnits="userSpaceOnUse">
<stop offset="0.407457" stop-color="#6149BF"/>
<stop offset="0.88954" stop-color="#70BEF7"/>
</linearGradient>
<linearGradient id="paint4_linear_7_3" x1="270" y1="4027" x2="972.5" y2="4895.5" gradientUnits="userSpaceOnUse">
<stop stop-color="#62D6C2"/>
<stop offset="1" stop-color="#547FF2"/>
</linearGradient>
</defs>
</svg>
