<svg id="icon" xmlns="http://www.w3.org/2000/svg" viewBox="0 0 528.26 528.26"><defs><style>.cls-1{fill:#002857;}.cls-2{fill:#fff;}</style></defs><title>icon-information</title><path class="cls-1" d="M450.9,77.36A264.13,264.13,0,0,0,77.36,450.9,264.13,264.13,0,0,0,450.9,77.36Z"/><path class="cls-2" d="M316,364.36a8.26,8.26,0,0,0-9,3.51c-10.25,15.1-26,20.2-34.76,16.25-6.84-3.08-6.46-10.71-4.94-16.57L306.22,218.3l0-.14c.06-.23.1-.46.14-.7l0-.26a5.21,5.21,0,0,0,.05-.69,1.93,1.93,0,0,0,0-.24,7.69,7.69,0,0,0,0-.83.34.34,0,0,0,0-.1v0a8.7,8.7,0,0,0-.15-.89,1.21,1.21,0,0,1,0-.18,5.83,5.83,0,0,0-.22-.71,2.09,2.09,0,0,0-.08-.23c-.09-.22-.18-.43-.28-.64l-.11-.21a7.16,7.16,0,0,0-.39-.66l-.08-.13a6.22,6.22,0,0,0-.58-.75v0l0,0c-.19-.21-.39-.41-.59-.6l-.19-.16c-.17-.15-.35-.29-.54-.43l-.2-.14a7.31,7.31,0,0,0-.7-.43l-.07,0a8.42,8.42,0,0,0-.86-.4l-.08,0a7.24,7.24,0,0,0-.79-.25l-.2,0c-.23-.06-.47-.1-.7-.14l-.25,0c-.23,0-.47,0-.71,0h-.23a7.19,7.19,0,0,0-.92,0l-87.25,10.06a8.33,8.33,0,0,0-7.5,8.44,8.14,8.14,0,0,0,8.12,7.82,7.42,7.42,0,0,0,.94-.06l14.85-1.71a9.52,9.52,0,0,1,10.31,11.86L204.39,369.3c-3.92,15-3.65,28.07.8,38.81A38,38,0,0,0,228,429.75a49.12,49.12,0,0,0,16.61,2.77c10.71,0,22.24-3.08,33.31-9.06,18.18-9.84,33.58-26.81,43.35-47.78A8.15,8.15,0,0,0,316,364.36Z"/><path class="cls-2" d="M287.28,174.39a39.33,39.33,0,1,0-39.35-39.34A39.38,39.38,0,0,0,287.28,174.39Z"/></svg>